<svg width="17" height="20" viewBox="0 0 17 20" fill="none" xmlns="http://www.w3.org/2000/svg">
<path d="M14.054 10.567C14.0452 8.93372 14.774 7.70096 16.2492 6.79308C15.4238 5.59593 14.1769 4.93728 12.5305 4.80822C10.9719 4.6836 9.26834 5.72944 8.64488 5.72944C7.98631 5.72944 6.47597 4.85272 5.29053 4.85272C2.84063 4.89277 0.237061 6.83314 0.237061 10.7806C0.237061 11.9466 0.447805 13.1512 0.869294 14.3943C1.43128 16.0276 3.45969 20.033 5.57592 19.9662C6.68233 19.9395 7.46384 19.1696 8.90392 19.1696C10.3001 19.1696 11.0245 19.9662 12.2583 19.9662C14.3921 19.935 16.2273 16.2946 16.7629 14.6569C13.9003 13.2906 14.054 10.6516 14.054 10.567ZM11.569 3.25948C12.7676 1.81756 12.6578 0.504699 12.6227 0.032959C11.5646 0.0952643 10.3396 0.762821 9.64153 1.58614C8.87319 2.46732 8.42097 3.55766 8.51756 4.78596C9.66348 4.87497 10.7084 4.27862 11.569 3.25948Z" fill="black"/>
</svg>
