<svg width="25" height="24" viewBox="0 0 25 24" fill="none" xmlns="http://www.w3.org/2000/svg">
<path d="M12.5 2.25C7.12391 2.25 2.75 6.62391 2.75 12C2.75 17.3761 7.12391 21.75 12.5 21.75C17.8761 21.75 22.25 17.3761 22.25 12C22.25 6.62391 17.8761 2.25 12.5 2.25ZM16.0302 14.4698C16.1027 14.5388 16.1608 14.6216 16.2008 14.7133C16.2409 14.805 16.2622 14.9039 16.2635 15.004C16.2648 15.1041 16.246 15.2034 16.2083 15.2961C16.1706 15.3889 16.1147 15.4731 16.0439 15.5439C15.9731 15.6147 15.8889 15.6706 15.7961 15.7083C15.7034 15.746 15.6041 15.7648 15.504 15.7635C15.4039 15.7622 15.305 15.7409 15.2133 15.7008C15.1216 15.6608 15.0388 15.6027 14.9698 15.5302L12.5 13.0608L10.0302 15.5302C9.88836 15.6649 9.69955 15.7389 9.50398 15.7364C9.3084 15.7339 9.12155 15.6551 8.98325 15.5168C8.84495 15.3785 8.76614 15.1916 8.76364 14.996C8.76114 14.8005 8.83513 14.6116 8.96984 14.4698L11.4392 12L8.96984 9.53016C8.83513 9.38836 8.76114 9.19955 8.76364 9.00398C8.76614 8.8084 8.84495 8.62155 8.98325 8.48325C9.12155 8.34495 9.3084 8.26614 9.50398 8.26364C9.69955 8.26114 9.88836 8.33513 10.0302 8.46984L12.5 10.9392L14.9698 8.46984C15.1116 8.33513 15.3005 8.26114 15.496 8.26364C15.6916 8.26614 15.8785 8.34495 16.0168 8.48325C16.1551 8.62155 16.2339 8.8084 16.2364 9.00398C16.2389 9.19955 16.1649 9.38836 16.0302 9.53016L13.5608 12L16.0302 14.4698Z" fill="#A1A1A1"/>
</svg>
