<svg width="18" height="19" viewBox="0 0 18 19" fill="none" xmlns="http://www.w3.org/2000/svg">
<path fill-rule="evenodd" clip-rule="evenodd" d="M15.5852 6.85225C15.8049 7.07192 15.8049 7.42808 15.5852 7.64775L12.4915 10.7415C12.2718 10.9612 11.9157 10.9612 11.696 10.7415C11.4763 10.5218 11.4763 10.1657 11.696 9.946L14.7898 6.85225C15.0094 6.63258 15.3656 6.63258 15.5852 6.85225Z" fill="#717272"/>
<path fill-rule="evenodd" clip-rule="evenodd" d="M7.7585 7.696C7.97817 7.47633 8.33433 7.47633 8.554 7.696L10.804 9.946C11.0237 10.1657 11.0237 10.5218 10.804 10.7415C10.5843 10.9612 10.2282 10.9612 10.0085 10.7415L7.7585 8.4915C7.53883 8.27183 7.53883 7.91567 7.7585 7.696Z" fill="#717272"/>
<path fill-rule="evenodd" clip-rule="evenodd" d="M6.8665 7.696C7.08617 7.91567 7.08617 8.27183 6.8665 8.4915L3.21025 12.1477C2.99058 12.3674 2.63442 12.3674 2.41475 12.1477C2.19508 11.9281 2.19508 11.5719 2.41475 11.3523L6.071 7.696C6.29067 7.47633 6.64683 7.47633 6.8665 7.696Z" fill="#717272"/>
<path fill-rule="evenodd" clip-rule="evenodd" d="M16.0312 6.125C15.8759 6.125 15.75 6.25092 15.75 6.40625C15.75 6.56158 15.8759 6.6875 16.0312 6.6875C16.1866 6.6875 16.3125 6.56158 16.3125 6.40625C16.3125 6.25092 16.1866 6.125 16.0312 6.125ZM14.625 6.40625C14.625 5.6296 15.2546 5 16.0312 5C16.8079 5 17.4375 5.6296 17.4375 6.40625C17.4375 7.1829 16.8079 7.8125 16.0312 7.8125C15.2546 7.8125 14.625 7.1829 14.625 6.40625Z" fill="#717272"/>
<path fill-rule="evenodd" clip-rule="evenodd" d="M11.25 10.9062C11.0947 10.9062 10.9688 11.0322 10.9688 11.1875C10.9688 11.3428 11.0947 11.4688 11.25 11.4688C11.4053 11.4688 11.5312 11.3428 11.5312 11.1875C11.5312 11.0322 11.4053 10.9062 11.25 10.9062ZM9.84375 11.1875C9.84375 10.4108 10.4733 9.78125 11.25 9.78125C12.0267 9.78125 12.6562 10.4108 12.6562 11.1875C12.6562 11.9642 12.0267 12.5938 11.25 12.5938C10.4733 12.5938 9.84375 11.9642 9.84375 11.1875Z" fill="#717272"/>
<path fill-rule="evenodd" clip-rule="evenodd" d="M7.3125 6.96875C7.15717 6.96875 7.03125 7.09467 7.03125 7.25C7.03125 7.40533 7.15717 7.53125 7.3125 7.53125C7.46783 7.53125 7.59375 7.40533 7.59375 7.25C7.59375 7.09467 7.46783 6.96875 7.3125 6.96875ZM5.90625 7.25C5.90625 6.47335 6.53585 5.84375 7.3125 5.84375C8.08915 5.84375 8.71875 6.47335 8.71875 7.25C8.71875 8.02665 8.08915 8.65625 7.3125 8.65625C6.53585 8.65625 5.90625 8.02665 5.90625 7.25Z" fill="#717272"/>
<path fill-rule="evenodd" clip-rule="evenodd" d="M1.96875 12.3125C1.81342 12.3125 1.6875 12.4384 1.6875 12.5938C1.6875 12.7491 1.81342 12.875 1.96875 12.875C2.12408 12.875 2.25 12.7491 2.25 12.5938C2.25 12.4384 2.12408 12.3125 1.96875 12.3125ZM0.5625 12.5938C0.5625 11.8171 1.1921 11.1875 1.96875 11.1875C2.7454 11.1875 3.375 11.8171 3.375 12.5938C3.375 13.3704 2.7454 14 1.96875 14C1.1921 14 0.5625 13.3704 0.5625 12.5938Z" fill="#717272"/>
</svg>
