<svg width="17" height="17" viewBox="0 0 17 17" fill="none" xmlns="http://www.w3.org/2000/svg">
<g clip-path="url(#clip0_526_9575)">
<path d="M6.50001 15.1666C6.8682 15.1666 7.16668 14.8682 7.16668 14.5C7.16668 14.1318 6.8682 13.8333 6.50001 13.8333C6.13182 13.8333 5.83334 14.1318 5.83334 14.5C5.83334 14.8682 6.13182 15.1666 6.50001 15.1666Z" fill="white" stroke="white" stroke-width="2" stroke-linecap="round" stroke-linejoin="round"/>
<path d="M13.8333 15.1666C14.2015 15.1666 14.5 14.8682 14.5 14.5C14.5 14.1318 14.2015 13.8333 13.8333 13.8333C13.4651 13.8333 13.1667 14.1318 13.1667 14.5C13.1667 14.8682 13.4651 15.1666 13.8333 15.1666Z" stroke="white" stroke-width="2" stroke-linecap="round" stroke-linejoin="round"/>
<path d="M1.16666 1.16669H3.83332L5.61999 10.0934C5.68095 10.4003 5.84793 10.676 6.09169 10.8722C6.33545 11.0684 6.64046 11.1727 6.95332 11.1667H13.4333C13.7462 11.1727 14.0512 11.0684 14.295 10.8722C14.5387 10.676 14.7057 10.4003 14.7667 10.0934L15.8333 4.50002H4.49999" stroke="white" stroke-width="2" stroke-linecap="round" stroke-linejoin="round"/>
</g>
<defs>
<clipPath id="clip0_526_9575">
<rect width="16" height="16" fill="white" transform="translate(0.5 0.5)"/>
</clipPath>
</defs>
</svg>
