<svg width="25" height="24" viewBox="0 0 25 24" fill="none" xmlns="http://www.w3.org/2000/svg">
<path fill-rule="evenodd" clip-rule="evenodd" d="M5.375 5.25C4.33947 5.25 3.5 6.08947 3.5 7.125V16.875C3.5 17.9105 4.33947 18.75 5.375 18.75H19.625C20.6605 18.75 21.5 17.9105 21.5 16.875V7.125C21.5 6.08947 20.6605 5.25 19.625 5.25H5.375ZM2 7.125C2 5.26104 3.51104 3.75 5.375 3.75H19.625C21.489 3.75 23 5.26104 23 7.125V16.875C23 18.739 21.489 20.25 19.625 20.25H5.375C3.51104 20.25 2 18.739 2 16.875V7.125Z" fill="#717272"/>
<path fill-rule="evenodd" clip-rule="evenodd" d="M22.25 10.4062H2.75V7.59375H22.25V10.4062Z" fill="#717272"/>
<path fill-rule="evenodd" clip-rule="evenodd" d="M5.09375 14.0625C5.09375 13.2858 5.72335 12.6562 6.5 12.6562H8.75C9.52665 12.6562 10.1562 13.2858 10.1562 14.0625V15C10.1562 15.7767 9.52665 16.4062 8.75 16.4062H6.5C5.72335 16.4062 5.09375 15.7767 5.09375 15V14.0625Z" fill="#717272"/>
</svg>
