<svg width="25" height="24" viewBox="0 0 25 24" fill="none" xmlns="http://www.w3.org/2000/svg">
<path d="M12.5 22C18.0228 22 22.5 17.5228 22.5 12C22.5 6.47715 18.0228 2 12.5 2C6.97715 2 2.5 6.47715 2.5 12C2.5 17.5228 6.97715 22 12.5 22Z" stroke="#717272" stroke-width="1.2" stroke-linecap="round" stroke-linejoin="round"/>
<path d="M9.59 8.99999C9.8251 8.33166 10.2891 7.7681 10.9 7.40912C11.5108 7.05015 12.2289 6.91893 12.9272 7.0387C13.6255 7.15848 14.2588 7.52151 14.7151 8.06352C15.1713 8.60552 15.4211 9.29151 15.42 9.99999C15.42 12 12.42 13 12.42 13" stroke="#717272" stroke-width="1.2" stroke-linecap="round" stroke-linejoin="round"/>
<path d="M12.5 17H12.51" stroke="#717272" stroke-width="2" stroke-linecap="round" stroke-linejoin="round"/>
</svg>
