<svg width="54" height="22" viewBox="0 0 54 22" fill="none" xmlns="http://www.w3.org/2000/svg">
<g filter="url(#filter0_d_526_4782)">
<path d="M45.6794 7.51245C47.622 7.51245 48.5933 8.28491 48.5933 9.82983C48.5933 10.7935 48.1344 11.5277 47.2166 12.0325C46.3142 12.522 45.0216 12.7744 43.339 12.7897C43.3085 13.3403 43.2932 13.7763 43.2932 14.0975C43.2932 14.7858 43.4461 15.2982 43.752 15.6348C44.0733 15.956 44.471 16.1166 44.9452 16.1166C45.4193 16.1166 45.8476 16.0248 46.23 15.8413C46.6277 15.6577 46.9413 15.4436 47.1708 15.1988C47.4002 14.9388 47.5991 14.6711 47.7673 14.3958C48.0732 13.891 48.2262 13.5698 48.2262 13.4321L48.6392 13.6157C48.5933 13.8604 48.4556 14.1893 48.2262 14.6023C47.9968 15 47.7444 15.3288 47.469 15.5889C47.1937 15.8489 46.7884 16.0937 46.253 16.3231C45.7176 16.5372 45.1211 16.6443 44.4633 16.6443C43.2243 16.6443 42.2836 16.3537 41.6412 15.7724C41.014 15.1759 40.7004 14.3652 40.7004 13.3403C40.7004 11.5201 41.1517 10.0975 42.0542 9.07267C42.9566 8.03252 44.165 7.51245 45.6794 7.51245ZM48.0197 9.82983C48.0197 9.32506 47.8667 8.91206 47.5608 8.59084C47.2702 8.25432 46.8266 8.08606 46.23 8.08606C45.6488 8.08606 45.0752 8.43788 44.5092 9.1415C43.9585 9.84513 43.5914 10.8853 43.4079 12.2619C46.4824 12.2466 48.0197 11.4359 48.0197 9.82983Z" fill="#00B7AA"/>
</g>
<g filter="url(#filter1_d_526_4782)">
<path d="M36.5599 7.51245C38.5025 7.51245 39.4738 8.28491 39.4738 9.82983C39.4738 10.7935 39.0149 11.5277 38.0971 12.0325C37.1947 12.522 35.9021 12.7744 34.2195 12.7897C34.1889 13.3403 34.1736 13.7763 34.1736 14.0975C34.1736 14.7858 34.3266 15.2982 34.6325 15.6348C34.9538 15.956 35.3515 16.1166 35.8256 16.1166C36.2998 16.1166 36.7281 16.0248 37.1105 15.8413C37.5082 15.6577 37.8218 15.4436 38.0512 15.1988C38.2807 14.9388 38.4795 14.6711 38.6478 14.3958C38.9537 13.891 39.1067 13.5698 39.1067 13.4321L39.5197 13.6157C39.4738 13.8604 39.3361 14.1893 39.1067 14.6023C38.8772 15 38.6249 15.3288 38.3495 15.5889C38.0742 15.8489 37.6688 16.0937 37.1335 16.3231C36.5981 16.5372 36.0016 16.6443 35.3438 16.6443C34.1048 16.6443 33.1641 16.3537 32.5217 15.7724C31.8945 15.1759 31.5809 14.3652 31.5809 13.3403C31.5809 11.5201 32.0322 10.0975 32.9347 9.07267C33.8371 8.03252 35.0455 7.51245 36.5599 7.51245ZM38.9002 9.82983C38.9002 9.32506 38.7472 8.91206 38.4413 8.59084C38.1507 8.25432 37.7071 8.08606 37.1105 8.08606C36.5293 8.08606 35.9557 8.43788 35.3897 9.1415C34.839 9.84513 34.4719 10.8853 34.2884 12.2619C37.3629 12.2466 38.9002 11.4359 38.9002 9.82983Z" fill="#00B7AA"/>
</g>
<g filter="url(#filter2_d_526_4782)">
<path d="M27.4635 10.3576C27.1422 10.0363 26.9816 9.64628 26.9816 9.18739C26.9816 8.7285 27.1422 8.33845 27.4635 8.01723C27.7847 7.68071 28.1441 7.51245 28.5418 7.51245C28.9548 7.51245 29.299 7.61952 29.5743 7.83367C29.865 8.03252 30.0715 8.29256 30.1938 8.61378C30.2091 8.62908 30.2168 8.64437 30.2168 8.65967V8.68261C30.4003 9.08032 30.4921 9.63098 30.4921 10.3346C30.4921 11.0229 30.4462 11.6118 30.3545 12.1013C30.2627 12.5908 30.0944 13.1109 29.8497 13.6615C29.6049 14.2122 29.3067 14.7093 28.9548 15.1529C28.603 15.5812 28.1288 15.9407 27.5323 16.2313C26.951 16.5067 26.3009 16.6443 25.582 16.6443C24.3583 16.6443 23.4405 16.2007 22.8287 15.3135C22.0945 16.2007 21.0926 16.6443 19.823 16.6443C18.844 16.6443 18.041 16.3384 17.4138 15.7265C16.802 15.1147 16.496 14.4111 16.496 13.6157C16.496 12.8203 16.6337 11.8413 16.909 10.6788C17.1997 9.50096 17.3603 8.59849 17.3909 7.97134C17.1461 7.98664 16.909 8.07841 16.6796 8.24667C16.4502 8.39963 16.2819 8.5526 16.1748 8.70556L16.0142 8.935L15.67 8.65967C15.7159 8.56789 15.7848 8.46082 15.8765 8.33845C15.9683 8.21608 16.1978 8.04782 16.5649 7.83367C16.9473 7.61952 17.4215 7.51245 17.9874 7.51245C18.5534 7.51245 19.0046 7.69601 19.3411 8.06312C19.693 8.43023 19.8689 8.89676 19.8689 9.46272C19.8689 10.0287 19.7159 10.9082 19.41 12.1013C19.1041 13.2791 18.9511 14.1128 18.9511 14.6023C18.9511 15.0765 19.0582 15.4512 19.2723 15.7265C19.5018 16.0019 19.823 16.1395 20.236 16.1395C21.1232 16.1395 21.8803 15.6807 22.5075 14.7629C22.3392 14.3346 22.2551 13.8375 22.2551 13.2715C22.2551 12.7055 22.3927 11.8413 22.6681 10.6788C22.9587 9.50096 23.1193 8.59849 23.1499 7.97134C22.9052 7.98664 22.6681 8.07841 22.4386 8.24667C22.2092 8.39963 22.0409 8.5526 21.9339 8.70556L21.7733 8.935L21.4291 8.65967C21.475 8.56789 21.5438 8.46082 21.6356 8.33845C21.7274 8.21608 21.9568 8.04782 22.3239 7.83367C22.7063 7.61952 23.1805 7.51245 23.7465 7.51245C24.3124 7.51245 24.7637 7.69601 25.1002 8.06312C25.452 8.43023 25.6279 8.89676 25.6279 9.46272C25.6279 10.0287 25.4749 10.9082 25.169 12.1013C24.8631 13.2791 24.7101 14.1128 24.7101 14.6023C24.7101 15.0765 24.8172 15.4512 25.0314 15.7265C25.2608 16.0019 25.582 16.1395 25.995 16.1395C27.0199 16.1395 27.9376 15.5889 28.7483 14.4875C29.559 13.3709 29.9644 12.1166 29.9644 10.7247C29.9644 10.6176 29.9491 10.457 29.9185 10.2428C29.5973 10.6405 29.1843 10.8394 28.6795 10.8394C28.19 10.8394 27.7847 10.6788 27.4635 10.3576Z" fill="#00B7AA"/>
</g>
<g filter="url(#filter3_d_526_4782)">
<path d="M5.23132 20.889C6.83743 20.889 8.08407 20.5602 8.97126 19.9024C9.87373 19.2447 10.325 18.3728 10.325 17.2868C10.325 16.5067 10.1261 15.8183 9.72842 15.2218C9.34601 14.6252 8.86418 14.1357 8.28292 13.7533C7.70167 13.3556 7.10511 12.9656 6.49326 12.5832C5.89671 12.2008 5.33839 11.7189 4.81832 11.1377C4.29825 10.5564 3.95408 9.89868 3.78582 9.16446C2.39386 8.75146 1.47609 7.88722 1.0325 6.57174C0.864239 6.06697 0.780109 5.53924 0.780109 4.98858C0.780109 4.43791 0.864239 3.86431 1.0325 3.26775C1.38431 2.08994 1.95792 1.20276 2.75333 0.606201L3.00571 0.973312C2.28679 1.49338 1.76672 2.30409 1.4455 3.40542C1.29253 3.95608 1.21605 4.4838 1.21605 4.98858C1.21605 5.49336 1.29253 5.97519 1.4455 6.43408C1.81261 7.5507 2.56977 8.30022 3.71699 8.68263C3.6864 8.51437 3.6711 8.25433 3.6711 7.90252C3.6711 5.89871 4.39767 4.2773 5.85082 3.03831C7.30396 1.79931 9.07833 1.17981 11.1739 1.17981C12.5506 1.17981 13.6519 1.55457 14.4779 2.30409C15.1815 2.96183 15.5333 3.77253 15.5333 4.73619C15.5333 5.68456 15.2121 6.51056 14.5697 7.21419C13.9272 7.90252 13.063 8.24668 11.977 8.24668C11.3804 8.24668 10.8909 8.13196 10.5085 7.90252C9.72842 8.49907 8.803 8.92737 7.73226 9.1874C8.03818 9.47803 8.74946 10.0134 9.86609 10.7935C10.998 11.5736 11.8393 12.3231 12.39 13.0421C12.9559 13.7457 13.2389 14.5717 13.2389 15.5201C13.2389 17.2638 12.5582 18.6787 11.1969 19.7648C9.85079 20.8508 8.13761 21.3938 6.05732 21.3938C3.99232 21.3938 2.43211 20.9349 1.37666 20.0172C0.458888 19.237 0 18.281 0 17.1491C0 16.0325 0.359462 15.0765 1.07839 14.2811C1.81261 13.4704 2.72273 13.065 3.80877 13.065C4.8948 13.065 5.69786 13.3097 6.21793 13.7992C6.738 14.2734 6.99804 14.8547 6.99804 15.543C6.99804 16.2313 6.78389 16.8432 6.3556 17.3785C5.9426 17.9139 5.39958 18.1816 4.72654 18.1816C4.05351 18.1816 3.51814 17.9675 3.12044 17.5392C2.75333 17.1721 2.54683 16.7132 2.50094 16.1625C2.48564 16.0095 2.48564 15.9178 2.50094 15.8872L2.93688 15.9101C2.92159 16.4455 3.08984 16.8891 3.44166 17.2409C3.73229 17.5621 4.15293 17.7227 4.7036 17.7227C5.26956 17.7227 5.7208 17.5009 6.05732 17.0573C6.39384 16.629 6.5621 16.1319 6.5621 15.5659C6.5621 14.9847 6.36324 14.5181 5.96554 14.1663C5.52195 13.7227 4.81067 13.5009 3.83171 13.5009C2.85275 13.5009 2.04205 13.8604 1.39961 14.5793C0.757165 15.283 0.435944 16.1319 0.435944 17.1262C0.435944 18.1357 0.848943 18.9923 1.67494 19.6959C2.16442 20.1242 2.66155 20.4302 3.16633 20.6137C3.6864 20.7973 4.37473 20.889 5.23132 20.889ZM9.13187 5.1033C9.13187 4.43027 9.30013 3.87195 9.63664 3.42836C9.98846 2.98477 10.4626 2.76297 11.0592 2.76297C12.084 2.76297 12.5965 3.32894 12.5965 4.46086C12.5965 5.57749 12.0382 6.63293 10.9215 7.62718C11.258 7.78015 11.6099 7.85663 11.977 7.85663C12.9253 7.85663 13.6825 7.5507 14.2485 6.93885C14.8144 6.31171 15.0974 5.58513 15.0974 4.75914C15.0974 3.91784 14.7915 3.20657 14.1796 2.62531C13.4301 1.95227 12.4435 1.61575 11.2198 1.61575C9.99611 1.61575 8.95596 1.91403 8.09937 2.51059C6.76859 3.45895 6.10321 4.68265 6.10321 6.18169C6.10321 7.42068 6.51621 8.32316 7.3422 8.88912C8.36705 8.65968 9.31542 8.24668 10.1873 7.65013C9.48368 7.02298 9.13187 6.17404 9.13187 5.1033ZM11.0363 3.17597C10.5774 3.17597 10.2179 3.35188 9.95786 3.70369C9.71312 4.05551 9.59075 4.52204 9.59075 5.1033C9.59075 6.09756 9.90433 6.85472 10.5315 7.3748C10.9904 7.05358 11.3728 6.61763 11.6787 6.06697C11.9846 5.5163 12.1376 4.97328 12.1376 4.43791C12.1376 3.59662 11.7705 3.17597 11.0363 3.17597Z" fill="#00B7AA"/>
</g>
<defs>
<filter id="filter0_d_526_4782" x="40.7004" y="7.51245" width="7.93872" height="9.13184" filterUnits="userSpaceOnUse" color-interpolation-filters="sRGB">
<feFlood flood-opacity="0" result="BackgroundImageFix"/>
<feColorMatrix in="SourceAlpha" type="matrix" values="0 0 0 0 0 0 0 0 0 0 0 0 0 0 0 0 0 0 127 0" result="hardAlpha"/>
<feOffset/>
<feComposite in2="hardAlpha" operator="out"/>
<feColorMatrix type="matrix" values="0 0 0 0 0 0 0 0 0 0 0 0 0 0 0 0 0 0 0.25 0"/>
<feBlend mode="normal" in2="BackgroundImageFix" result="effect1_dropShadow_526_4782"/>
<feBlend mode="normal" in="SourceGraphic" in2="effect1_dropShadow_526_4782" result="shape"/>
</filter>
<filter id="filter1_d_526_4782" x="31.5809" y="7.51245" width="7.93872" height="9.13184" filterUnits="userSpaceOnUse" color-interpolation-filters="sRGB">
<feFlood flood-opacity="0" result="BackgroundImageFix"/>
<feColorMatrix in="SourceAlpha" type="matrix" values="0 0 0 0 0 0 0 0 0 0 0 0 0 0 0 0 0 0 127 0" result="hardAlpha"/>
<feOffset/>
<feComposite in2="hardAlpha" operator="out"/>
<feColorMatrix type="matrix" values="0 0 0 0 0 0 0 0 0 0 0 0 0 0 0 0 0 0 0.25 0"/>
<feBlend mode="normal" in2="BackgroundImageFix" result="effect1_dropShadow_526_4782"/>
<feBlend mode="normal" in="SourceGraphic" in2="effect1_dropShadow_526_4782" result="shape"/>
</filter>
<filter id="filter2_d_526_4782" x="15.67" y="7.51245" width="14.822" height="9.13184" filterUnits="userSpaceOnUse" color-interpolation-filters="sRGB">
<feFlood flood-opacity="0" result="BackgroundImageFix"/>
<feColorMatrix in="SourceAlpha" type="matrix" values="0 0 0 0 0 0 0 0 0 0 0 0 0 0 0 0 0 0 127 0" result="hardAlpha"/>
<feOffset/>
<feComposite in2="hardAlpha" operator="out"/>
<feColorMatrix type="matrix" values="0 0 0 0 0 0 0 0 0 0 0 0 0 0 0 0 0 0 0.25 0"/>
<feBlend mode="normal" in2="BackgroundImageFix" result="effect1_dropShadow_526_4782"/>
<feBlend mode="normal" in="SourceGraphic" in2="effect1_dropShadow_526_4782" result="shape"/>
</filter>
<filter id="filter3_d_526_4782" x="0" y="0.606201" width="15.5333" height="20.7876" filterUnits="userSpaceOnUse" color-interpolation-filters="sRGB">
<feFlood flood-opacity="0" result="BackgroundImageFix"/>
<feColorMatrix in="SourceAlpha" type="matrix" values="0 0 0 0 0 0 0 0 0 0 0 0 0 0 0 0 0 0 127 0" result="hardAlpha"/>
<feOffset/>
<feComposite in2="hardAlpha" operator="out"/>
<feColorMatrix type="matrix" values="0 0 0 0 0 0 0 0 0 0 0 0 0 0 0 0 0 0 0.25 0"/>
<feBlend mode="normal" in2="BackgroundImageFix" result="effect1_dropShadow_526_4782"/>
<feBlend mode="normal" in="SourceGraphic" in2="effect1_dropShadow_526_4782" result="shape"/>
</filter>
</defs>
</svg>
