<svg width="24" height="24" viewBox="0 0 24 24" fill="none" xmlns="http://www.w3.org/2000/svg">
<path d="M21.9947 1C21.9434 0.999889 21.8923 1.00705 21.8428 1.02129L16.4331 2.53838C16.3611 2.55857 16.2937 2.59334 16.2346 2.64072C16.1755 2.68811 16.1259 2.74716 16.0887 2.81453C16.0515 2.88189 16.0274 2.95624 16.0177 3.03333C16.008 3.11042 16.013 3.18874 16.0324 3.26382C16.0517 3.3389 16.0851 3.40927 16.1305 3.4709C16.1759 3.53254 16.2325 3.58425 16.2971 3.62306C16.3617 3.66188 16.433 3.68704 16.5069 3.69712C16.5808 3.70721 16.6559 3.702 16.7279 3.68182L20.8146 2.53365L17.119 9.20508C15.058 8.29577 12.6286 9.049 11.5007 11.0876C10.2764 13.2988 11.0552 16.1532 13.2091 17.4504C15.363 18.7475 18.1256 18.0262 19.3488 15.815C20.4768 13.7776 19.885 11.207 18.1007 9.79867L21.7963 3.12488L22.8846 7.38764C22.9038 7.46272 22.937 7.53312 22.9823 7.59482C23.0276 7.65652 23.0841 7.70831 23.1486 7.74723C23.213 7.78616 23.2842 7.81145 23.3581 7.82168C23.4319 7.8319 23.507 7.82686 23.579 7.80682C23.6509 7.78679 23.7184 7.75217 23.7776 7.70493C23.8367 7.65769 23.8864 7.59876 23.9237 7.53151C23.961 7.46426 23.9853 7.39 23.9951 7.31297C24.0049 7.23594 24 7.15765 23.9808 7.08257L22.5377 1.43869C22.5057 1.31366 22.4353 1.20303 22.3372 1.12379C22.2391 1.04454 22.1188 1.00106 21.9947 1ZM4.52999 5.08776C2.0428 5.08776 0 7.15706 0 9.70881C0 12.0619 1.74239 13.9798 3.96317 14.2684V19.2773H1.72312C1.57279 19.2773 1.42862 19.3396 1.32232 19.4504C1.21602 19.5613 1.1563 19.7117 1.1563 19.8685C1.1563 20.0253 1.21602 20.1757 1.32232 20.2866C1.42862 20.3974 1.57279 20.4597 1.72312 20.4597H3.96317V23.4088C3.96317 23.5656 4.02289 23.716 4.12919 23.8268C4.23549 23.9377 4.37966 24 4.52999 24C4.68032 24 4.82449 23.9377 4.93079 23.8268C5.03709 23.716 5.0968 23.5656 5.0968 23.4088V20.4597H7.33346C7.48379 20.4597 7.62796 20.3974 7.73426 20.2866C7.84056 20.1757 7.90027 20.0253 7.90027 19.8685C7.90027 19.7117 7.84056 19.5613 7.73426 19.4504C7.62796 19.3396 7.48379 19.2773 7.33346 19.2773H5.0968V14.2684C7.31872 13.9798 9.06225 12.0631 9.06225 9.70881C9.06225 7.15706 7.01831 5.08776 4.52999 5.08776ZM4.52999 6.27022C6.42089 6.27022 7.92861 7.81214 7.92861 9.70881C7.92861 11.6055 6.42089 13.145 4.52999 13.145C2.63909 13.145 1.13363 11.6055 1.13363 9.70881C1.13363 7.81214 2.63909 6.27022 4.52999 6.27022ZM15.1385 9.99023C15.8144 9.95141 16.4863 10.12 17.0713 10.475C18.7083 11.4624 19.2751 13.5814 18.366 15.2238C17.4568 16.8674 15.414 17.4137 13.7759 16.4275C12.1389 15.4414 11.5721 13.3212 12.4813 11.6788C12.7543 11.1887 13.1403 10.7776 13.6044 10.4827C14.0685 10.1878 14.5958 10.0185 15.1385 9.99023Z" fill="#717272"/>
</svg>
