<svg width="16" height="17" viewBox="0 0 16 17" fill="none" xmlns="http://www.w3.org/2000/svg">
<path fill-rule="evenodd" clip-rule="evenodd" d="M3 6.17505C3 3.51297 5.26319 1.3938 8 1.3938C10.7368 1.3938 13 3.51297 13 6.17505C13 7.67582 12.1886 9.53259 11.2997 11.1375C10.3975 12.7665 9.35849 14.234 8.8013 14.9865C8.70936 15.1122 8.58914 15.2145 8.45034 15.2851C8.31083 15.3561 8.15652 15.3932 8 15.3932C7.84348 15.3932 7.68917 15.3561 7.54966 15.2851C7.41085 15.2145 7.29061 15.1122 7.19867 14.9865C6.64149 14.2337 5.60248 12.7656 4.70029 11.1364C3.81146 9.5314 3 7.67475 3 6.17505ZM8 2.3938C5.76806 2.3938 4 4.11151 4 6.17505C4 7.3941 4.68854 9.05104 5.5751 10.652C6.44592 12.2244 7.45456 13.6511 8 14.3882C8.54542 13.6515 9.55408 12.2253 10.4249 10.653C11.3114 9.05235 12 7.39522 12 6.17505C12 4.11151 10.2319 2.3938 8 2.3938Z" fill="#21272A"/>
<path fill-rule="evenodd" clip-rule="evenodd" d="M8 5.3938C7.44772 5.3938 7 5.84151 7 6.3938C7 6.94608 7.44772 7.3938 8 7.3938C8.55228 7.3938 9 6.94608 9 6.3938C9 5.84151 8.55228 5.3938 8 5.3938ZM6 6.3938C6 5.28923 6.89543 4.3938 8 4.3938C9.10457 4.3938 10 5.28923 10 6.3938C10 7.49837 9.10457 8.3938 8 8.3938C6.89543 8.3938 6 7.49837 6 6.3938Z" fill="#21272A"/>
</svg>
