<svg width="25" height="24" viewBox="0 0 25 24" fill="none" xmlns="http://www.w3.org/2000/svg">
<path fill-rule="evenodd" clip-rule="evenodd" d="M4.73267 4.5C3.90424 4.5 3.23267 5.17157 3.23267 6V19.5C3.23267 20.3284 3.90424 21 4.73267 21H19.7327C20.5611 21 21.2327 20.3284 21.2327 19.5V6C21.2327 5.17157 20.5611 4.5 19.7327 4.5H4.73267ZM1.73267 6C1.73267 4.34315 3.07581 3 4.73267 3H19.7327C21.3895 3 22.7327 4.34315 22.7327 6V19.5C22.7327 21.1569 21.3895 22.5 19.7327 22.5H4.73267C3.07581 22.5 1.73267 21.1569 1.73267 19.5V6Z" fill="#717272"/>
<path fill-rule="evenodd" clip-rule="evenodd" d="M6.23267 1.5C6.64688 1.5 6.98267 1.83579 6.98267 2.25V3.75C6.98267 4.16421 6.64688 4.5 6.23267 4.5C5.81845 4.5 5.48267 4.16421 5.48267 3.75V2.25C5.48267 1.83579 5.81845 1.5 6.23267 1.5Z" fill="#717272"/>
<path fill-rule="evenodd" clip-rule="evenodd" d="M18.2327 1.5C18.6469 1.5 18.9827 1.83579 18.9827 2.25V3.75C18.9827 4.16421 18.6469 4.5 18.2327 4.5C17.8185 4.5 17.4827 4.16421 17.4827 3.75V2.25C17.4827 1.83579 17.8185 1.5 18.2327 1.5Z" fill="#717272"/>
<path fill-rule="evenodd" clip-rule="evenodd" d="M1.73267 7.5C1.73267 7.08579 2.06845 6.75 2.48267 6.75H21.9827C22.3969 6.75 22.7327 7.08579 22.7327 7.5C22.7327 7.91421 22.3969 8.25 21.9827 8.25H2.48267C2.06845 8.25 1.73267 7.91421 1.73267 7.5Z" fill="#717272"/>
<path fill-rule="evenodd" clip-rule="evenodd" d="M16.0731 10.0837C16.202 9.98875 16.3579 9.9375 16.518 9.9375H16.7327C17.1469 9.9375 17.4827 10.2733 17.4827 10.6875V18.5625C17.4827 18.9767 17.1469 19.3125 16.7327 19.3125C16.3185 19.3125 15.9827 18.9767 15.9827 18.5625V12.0137L14.9277 12.7912C14.5942 13.037 14.1247 12.9659 13.879 12.6325C13.6332 12.299 13.7043 11.8295 14.0378 11.5838L16.0731 10.0837Z" fill="#717272"/>
<path fill-rule="evenodd" clip-rule="evenodd" d="M6.80504 11.0055C7.12477 10.465 7.92261 9.75 9.22478 9.75C9.94374 9.75 10.6753 9.94447 11.2464 10.3794C11.8369 10.8291 12.2184 11.5122 12.2196 12.3661C12.2228 12.7017 12.1592 13.0347 12.0323 13.3455C11.9055 13.656 11.7181 13.9383 11.4811 14.1756C10.7959 14.8746 9.80409 15.1233 9.22665 15.1233C8.81244 15.1233 8.47665 14.7875 8.47665 14.3733C8.47665 13.9591 8.81244 13.6233 9.22665 13.6233C9.33993 13.6233 9.55406 13.5931 9.79512 13.504C10.0331 13.4159 10.2522 13.2871 10.4114 13.1241C10.4136 13.1218 10.4159 13.1195 10.4182 13.1172C10.5152 13.0204 10.5918 12.9053 10.6436 12.7785C10.6953 12.6516 10.7212 12.5158 10.7197 12.3788C10.7196 12.376 10.7196 12.3731 10.7196 12.3703C10.7196 12.0018 10.5719 11.7512 10.3375 11.5727C10.0826 11.3785 9.69175 11.25 9.22478 11.25C8.52069 11.25 8.18228 11.6235 8.09608 11.7692C7.88519 12.1257 7.42522 12.2437 7.06871 12.0329C6.7122 11.822 6.59415 11.362 6.80504 11.0055Z" fill="#717272"/>
<path fill-rule="evenodd" clip-rule="evenodd" d="M8.47669 14.3733C8.47669 13.9591 8.81248 13.6233 9.22669 13.6233C9.86035 13.6233 10.9577 13.8987 11.7102 14.6679C12.2546 15.223 12.4672 15.9663 12.4672 16.6959C12.4672 17.5837 12.0825 18.3122 11.4631 18.8016C10.8608 19.2774 10.0754 19.5 9.27403 19.5C7.75427 19.5 6.85896 18.4075 6.57123 17.9199C6.36073 17.5632 6.47927 17.1033 6.83601 16.8928C7.19274 16.6823 7.65258 16.8009 7.86309 17.1576C8.03286 17.4453 8.52786 18 9.27403 18C9.81281 18 10.249 17.8491 10.5332 17.6245C10.8003 17.4136 10.9672 17.1151 10.9672 16.6959C10.9672 16.2428 10.8367 15.9194 10.6391 15.718L10.6381 15.717C10.2318 15.3015 9.55855 15.1233 9.22669 15.1233C8.81248 15.1233 8.47669 14.7875 8.47669 14.3733Z" fill="#717272"/>
</svg>
