<svg width="24" height="24" viewBox="0 0 24 24" fill="none" xmlns="http://www.w3.org/2000/svg">
<path d="M13.3549 10.5321L13.3489 10.5278L13.3427 10.5236L8.65719 7.3553L8.43026 7.19689C8.26058 7.07844 8.05463 7.02349 7.8485 7.04168C7.82685 7.04359 7.80534 7.04629 7.78401 7.04977C7.79094 7.03591 7.79759 7.02191 7.80397 7.00776L7.34814 6.80229L7.80397 7.00776C7.86742 6.86699 7.90221 6.71501 7.90631 6.56067C7.91042 6.40632 7.88376 6.2527 7.82789 6.10877L7.36177 6.28971L7.82789 6.10877C7.77201 5.96483 7.68805 5.83346 7.58088 5.72231L7.23831 6.0526L7.58088 5.72231C7.47371 5.61116 7.34549 5.52246 7.20369 5.46137C7.06188 5.40028 6.90934 5.36803 6.75495 5.36651C6.60056 5.36498 6.44741 5.3942 6.30443 5.45247C6.16322 5.51002 6.03473 5.59475 5.92624 5.70184C5.07709 6.51525 4.40201 7.49268 3.94196 8.57487C3.48144 9.65816 3.24602 10.8238 3.25 12.0009C3.25048 16.8259 7.17737 20.75 12 20.75C16.8255 20.75 20.75 16.8229 20.75 12C20.75 7.17707 16.8255 3.25 12 3.25C11.6915 3.25 11.3956 3.37256 11.1774 3.59072C10.9593 3.80888 10.8367 4.10476 10.8367 4.41328V7.6875C10.8367 7.99602 10.9593 8.29191 11.1774 8.51006C11.3956 8.72822 11.6915 8.85078 12 8.85078C12.3085 8.85078 12.6044 8.72822 12.8226 8.51006C13.0407 8.29191 13.1633 7.99602 13.1633 7.6875V5.68317C16.1514 6.231 18.4234 8.85585 18.4234 12C18.4234 15.5414 15.5414 18.4234 12 18.4234C8.45864 18.4234 5.57656 15.5414 5.57657 12L5.57656 11.9983C5.57365 11.1349 5.74634 10.2799 6.08413 9.4853C6.32664 8.91483 6.65061 8.38404 7.04489 7.90907C7.04276 8.0909 7.09698 8.26953 7.20089 8.42001L10.5274 13.3395L10.5273 13.3395L10.533 13.3475C10.6685 13.5398 10.8361 13.7074 11.0284 13.843L11.0284 13.843L11.0357 13.848C11.4757 14.1468 12.0155 14.2603 12.5386 14.164C13.0616 14.0678 13.5257 13.7695 13.8305 13.3337C14.1352 12.8979 14.2562 12.3597 14.1672 11.8354C14.0782 11.3111 13.7864 10.8429 13.3549 10.5321ZM2.75 12C2.75 6.89114 6.89114 2.75 12 2.75C17.1089 2.75 21.25 6.89114 21.25 12C21.25 17.1089 17.1089 21.25 12 21.25C6.89114 21.25 2.75 17.1089 2.75 12Z" fill="white" stroke="white"/>
</svg>
