<svg width="14" height="14" viewBox="0 0 14 14" fill="none" xmlns="http://www.w3.org/2000/svg">
<path d="M13.5 7C13.5 3.41031 10.5897 0.5 7 0.5C3.41031 0.5 0.5 3.41031 0.5 7C0.5 10.5897 3.41031 13.5 7 13.5C10.5897 13.5 13.5 10.5897 13.5 7ZM6.85469 9.855C6.80806 9.80875 6.771 9.75378 6.74563 9.69321C6.72025 9.63264 6.70705 9.56766 6.70679 9.50199C6.70653 9.43632 6.71921 9.37124 6.7441 9.31047C6.769 9.2497 6.80562 9.19443 6.85187 9.14781L8.48687 7.5H4.3125C4.17989 7.5 4.05271 7.44732 3.95895 7.35355C3.86518 7.25979 3.8125 7.13261 3.8125 7C3.8125 6.86739 3.86518 6.74021 3.95895 6.64645C4.05271 6.55268 4.17989 6.5 4.3125 6.5H8.48687L6.85187 4.85219C6.80562 4.80553 6.76902 4.75021 6.74415 4.68941C6.71927 4.6286 6.70662 4.56349 6.70691 4.49779C6.7072 4.43209 6.72043 4.3671 6.74584 4.30651C6.77125 4.24592 6.80834 4.19094 6.855 4.14469C6.90166 4.09844 6.95697 4.06183 7.01778 4.03696C7.07859 4.01208 7.1437 3.99943 7.2094 3.99972C7.34208 4.00031 7.46909 4.05358 7.5625 4.14781L10.0434 6.64781C10.1364 6.74147 10.1885 6.86806 10.1885 7C10.1885 7.13194 10.1364 7.25853 10.0434 7.35219L7.5625 9.85219C7.51624 9.89891 7.46123 9.93605 7.4006 9.96148C7.33997 9.98691 7.27492 10.0001 7.20918 10.0004C7.14343 10.0007 7.07828 9.98795 7.01745 9.963C6.95663 9.93805 6.90131 9.90135 6.85469 9.855V9.855Z" fill="#F7F9FA"/>
</svg>
