<svg width="25" height="24" viewBox="0 0 25 24" fill="none" xmlns="http://www.w3.org/2000/svg">
<path fill-rule="evenodd" clip-rule="evenodd" d="M5.10756 5.25C4.07203 5.25 3.23256 6.08947 3.23256 7.125V16.875C3.23256 17.9105 4.07203 18.75 5.10756 18.75H19.3576C20.3931 18.75 21.2326 17.9105 21.2326 16.875V7.125C21.2326 6.08947 20.3931 5.25 19.3576 5.25H5.10756ZM1.73256 7.125C1.73256 5.26104 3.2436 3.75 5.10756 3.75H19.3576C21.2215 3.75 22.7326 5.26104 22.7326 7.125V16.875C22.7326 18.739 21.2215 20.25 19.3576 20.25H5.10756C3.2436 20.25 1.73256 18.739 1.73256 16.875V7.125Z" fill="#717272"/>
<path fill-rule="evenodd" clip-rule="evenodd" d="M21.9826 10.4062H2.48256V7.59375H21.9826V10.4062Z" fill="#717272"/>
<path fill-rule="evenodd" clip-rule="evenodd" d="M4.82631 14.0625C4.82631 13.2858 5.45591 12.6562 6.23256 12.6562H8.48256C9.25921 12.6562 9.88881 13.2858 9.88881 14.0625V15C9.88881 15.7767 9.25921 16.4062 8.48256 16.4062H6.23256C5.45591 16.4062 4.82631 15.7767 4.82631 15V14.0625Z" fill="#717272"/>
</svg>
