<svg width="25" height="24" viewBox="0 0 25 24" fill="none" xmlns="http://www.w3.org/2000/svg">
<path fill-rule="evenodd" clip-rule="evenodd" d="M7.6057 1.61201C7.82681 1.47536 8.10292 1.46293 8.33541 1.57918L9.5 2.16148L10.6646 1.57918C10.8759 1.47352 11.1247 1.47361 11.3359 1.57943L12.4994 2.16228L13.6822 1.57765C13.8937 1.47313 14.142 1.47418 14.3526 1.5805L15.5005 2.1601L16.653 1.58007C16.8647 1.47352 17.1143 1.4733 17.3262 1.57947L18.4887 2.16202L19.6669 1.57802C19.8776 1.4736 20.125 1.47402 20.3353 1.57914L21.5004 2.16148L22.6645 1.57922C22.897 1.46294 23.1731 1.47534 23.3943 1.61199C23.6154 1.74864 23.75 1.99005 23.75 2.25V12.75H22.25V3.4637L21.836 3.67078C21.6248 3.77638 21.3763 3.77641 21.1651 3.67086L19.9986 3.08777L18.82 3.67198C18.6091 3.77652 18.3613 3.77598 18.1509 3.67053L16.9909 3.08926L15.8372 3.66993C15.6248 3.77684 15.3742 3.77668 15.162 3.66951L14.011 3.08838L12.8295 3.67235C12.6188 3.77651 12.3714 3.77585 12.1613 3.67057L10.9997 3.08868L9.83541 3.67082C9.62426 3.77639 9.37574 3.77639 9.16459 3.67082L8.75 3.46353V15.75H7.25V2.25C7.25 1.99007 7.38459 1.74867 7.6057 1.61201Z" fill="#717272"/>
<path fill-rule="evenodd" clip-rule="evenodd" d="M22.25 18V12.75H23.75V18C23.75 19.1935 23.2759 20.3381 22.432 21.182C21.5881 22.0259 20.4435 22.5 19.25 22.5H5.75C4.81406 22.5 4.02581 22.3473 3.37829 22.0216C2.71881 21.6898 2.24942 21.2006 1.92788 20.6074C1.31624 19.4792 1.25008 17.9777 1.25 16.5028C1.24876 16.3057 1.28653 16.1104 1.36113 15.928C1.43622 15.7444 1.54713 15.5776 1.68739 15.4374C1.82764 15.2971 1.99443 15.1862 2.17802 15.1111C2.3604 15.0365 2.55573 14.9988 2.75275 15H15.5C15.9142 15 16.25 15.3358 16.25 15.75V18C16.25 18.7956 16.5661 19.5587 17.1287 20.1213C17.6913 20.6839 18.4543 21 19.25 21C20.0456 21 20.8087 20.6839 21.3713 20.1213C21.9339 19.5587 22.25 18.7956 22.25 18ZM15.8959 21C15.1599 20.1772 14.75 19.1097 14.75 18V16.5H2.75C2.75 18.0242 2.84211 19.1465 3.24657 19.8926C3.43327 20.2369 3.68675 20.4977 4.05234 20.6816C4.42989 20.8715 4.96891 21 5.75 21H15.8959Z" fill="#717272"/>
<path fill-rule="evenodd" clip-rule="evenodd" d="M10.25 6.75C10.25 6.33579 10.5858 6 11 6H20C20.4142 6 20.75 6.33579 20.75 6.75C20.75 7.16421 20.4142 7.5 20 7.5H11C10.5858 7.5 10.25 7.16421 10.25 6.75Z" fill="#717272"/>
<path fill-rule="evenodd" clip-rule="evenodd" d="M13.25 10.5C13.25 10.0858 13.5858 9.75 14 9.75H20C20.4142 9.75 20.75 10.0858 20.75 10.5C20.75 10.9142 20.4142 11.25 20 11.25H14C13.5858 11.25 13.25 10.9142 13.25 10.5Z" fill="#717272"/>
</svg>
