<svg width="64" height="64" viewBox="0 0 64 64" fill="none" xmlns="http://www.w3.org/2000/svg">
<path d="M53.3001 57.7751H10.7001C9.71256 57.7751 8.72506 57.5251 7.86256 57.0626C6.45006 56.3001 5.42506 55.0376 4.96256 53.5001C4.50006 51.9626 4.66256 50.3376 5.42506 48.9376L26.7126 9.3751C27.7626 7.4251 29.7876 6.2251 32.0001 6.2251C34.2126 6.2251 36.2376 7.4376 37.2876 9.3751L58.5876 48.9376C59.0626 49.8126 59.3001 50.7876 59.3001 51.7876C59.3001 53.3876 58.6751 54.9001 57.5376 56.0251C56.4126 57.1626 54.9126 57.7751 53.3001 57.7751ZM10.7001 53.7751H53.3126C53.8501 53.7751 54.3501 53.5626 54.7251 53.1876C55.1001 52.8126 55.3126 52.3126 55.3126 51.7751C55.3126 51.4501 55.2251 51.1126 55.0751 50.8251L33.7626 11.2751C33.2501 10.3251 32.3626 10.2251 32.0001 10.2251C31.6376 10.2251 30.7501 10.3251 30.2376 11.2751L8.93756 50.8376C8.68756 51.3126 8.62506 51.8501 8.78756 52.3626C8.93756 52.8751 9.28756 53.3001 9.75006 53.5501C10.0376 53.7001 10.3626 53.7751 10.7001 53.7751Z" fill="#21272A"/>
<path d="M32.0001 41.6751C30.9376 41.6751 30.0501 40.8376 30.0001 39.7751L29.2876 24.5251C29.2876 24.5126 29.2876 24.5001 29.2876 24.4876V24.4251C29.2751 22.9251 30.4751 21.7001 31.9751 21.6876C32.0251 21.6876 32.0751 21.6876 32.1251 21.6876C33.6251 21.7501 34.7876 23.0251 34.7126 24.5251L34.0001 39.7751C33.9501 40.8376 33.0626 41.6751 32.0001 41.6751Z" fill="#21272A"/>
<path d="M32 49.6501C30.625 49.6501 29.5 48.5251 29.5 47.1501C29.5 45.7751 30.625 44.6501 32 44.6501C33.375 44.6501 34.5 45.7751 34.5 47.1501C34.5 48.5251 33.375 49.6501 32 49.6501Z" fill="#21272A"/>
</svg>
