<svg width="25" height="24" viewBox="0 0 25 24" fill="none" xmlns="http://www.w3.org/2000/svg">
<path d="M14 12C11.5203 12 9.33594 9.67031 9.125 6.80625C9.01719 5.35312 9.46719 4.00781 10.3906 3.01875C11.3 2.03906 12.5844 1.5 14 1.5C15.4063 1.5 16.6859 2.04375 17.6 3.02812C18.5281 4.02656 18.9781 5.36719 18.8703 6.80625C18.6594 9.67031 16.475 12 14 12ZM14 3C13.0063 3 12.1109 3.37031 11.4875 4.04062C10.8547 4.72031 10.5453 5.66719 10.6203 6.69844C10.7703 8.76094 12.3172 10.5047 13.9953 10.5047C15.6734 10.5047 17.2203 8.76094 17.3703 6.69844C17.4453 5.68125 17.1359 4.73906 16.4938 4.05C15.875 3.37031 14.9844 3 14 3Z" fill="#21272A"/>
<path d="M22.25 22.5H5.75C5.3 22.5 4.89219 22.3125 4.61094 21.975C4.30625 21.6094 4.18437 21.1125 4.27812 20.6109C4.67187 18.4172 5.90937 16.575 7.85 15.2812C9.575 14.1328 11.7594 13.5 14 13.5C16.2406 13.5 18.425 14.1328 20.15 15.2812C22.0906 16.575 23.3281 18.4172 23.7219 20.6109C23.8109 21.1125 23.6891 21.6094 23.3844 21.975C23.1031 22.3125 22.7 22.5 22.25 22.5ZM5.75937 21H22.2406C22.25 20.9766 22.2547 20.9391 22.2453 20.8781C21.5187 16.8422 17.4594 15 14 15C10.5406 15 6.48125 16.8422 5.75469 20.8781C5.74531 20.9391 5.75 20.9766 5.75937 21Z" fill="#21272A"/>
<path d="M4.625 14.25C4.2125 14.25 3.875 13.9125 3.875 13.5V8.25C3.875 7.8375 4.2125 7.5 4.625 7.5C5.0375 7.5 5.375 7.8375 5.375 8.25V13.5C5.375 13.9125 5.0375 14.25 4.625 14.25Z" fill="#21272A"/>
<path d="M7.25 11.625H2C1.5875 11.625 1.25 11.2875 1.25 10.875C1.25 10.4625 1.5875 10.125 2 10.125H7.25C7.6625 10.125 8 10.4625 8 10.875C8 11.2875 7.6625 11.625 7.25 11.625Z" fill="#21272A"/>
</svg>
