<svg width="82" height="82" viewBox="0 0 82 82" fill="none" xmlns="http://www.w3.org/2000/svg">
<rect width="82" height="82" rx="41" fill="white"/>
<path fill-rule="evenodd" clip-rule="evenodd" d="M53.3005 32.8C53.3005 39.5931 47.7936 45.1 41.0005 45.1C34.2074 45.1 28.7005 39.5931 28.7005 32.8C28.7005 26.0069 34.2074 20.5 41.0005 20.5C47.7936 20.5 53.3005 26.0069 53.3005 32.8ZM49.2005 32.8C49.2005 37.3287 45.5292 41 41.0005 41C36.4718 41 32.8005 37.3287 32.8005 32.8C32.8005 28.2713 36.4718 24.6 41.0005 24.6C45.5292 24.6 49.2005 28.2713 49.2005 32.8Z" fill="#FF7BA9"/>
<path d="M41.0005 51.25C27.728 51.25 16.4195 59.0982 12.1118 70.0937C13.1612 71.1357 14.2667 72.1214 15.4232 73.0457C18.631 62.9508 28.6938 55.35 41.0005 55.35C53.3072 55.35 63.3701 62.9508 66.5778 73.0457C67.7344 72.1214 68.8398 71.1358 69.8892 70.0937C65.5815 59.0983 54.273 51.25 41.0005 51.25Z" fill="#FF7BA9"/>
</svg>
