<svg width="25" height="24" viewBox="0 0 25 24" fill="none" xmlns="http://www.w3.org/2000/svg">
<path fill-rule="evenodd" clip-rule="evenodd" d="M9.72356 3.77601C10.059 2.64942 11.0428 1.5 12.5001 1.5C13.9577 1.5 14.9405 2.64947 15.2785 3.77394C15.2802 3.77603 15.2825 3.77868 15.2854 3.78172C15.2923 3.78895 15.3002 3.79559 15.3076 3.80075C15.3132 3.80467 15.3166 3.80636 15.317 3.80656C16.1653 4.15582 17.1638 4.71371 17.9447 5.73514C18.7319 6.76478 19.244 8.19413 19.244 10.1883C19.244 12.1765 19.4537 13.2668 19.7626 14.0153C20.0335 14.6716 20.3896 15.103 20.8964 15.7168C20.9705 15.8065 21.0477 15.9 21.1283 15.9987L21.1285 15.999C22.0626 17.1431 21.1806 18.75 19.7418 18.75H5.26302C3.82686 18.75 2.92998 17.1513 3.87177 15.9987C3.95248 15.9 4.02976 15.8063 4.10384 15.7166C4.61056 15.1029 4.96677 14.6714 5.23786 14.0151C5.54704 13.2666 5.75731 12.1763 5.75849 10.1883M9.72356 3.77601C9.72226 3.77755 9.72064 3.77936 9.71866 3.78141C9.71228 3.78803 9.70473 3.79442 9.6972 3.79961C9.69021 3.80443 9.68601 3.8063 9.68602 3.80631L9.68557 3.8065C8.83692 4.15597 7.83812 4.71281 7.05714 5.73399C6.26999 6.76324 5.75857 8.19238 5.75849 10.1878M12.5001 3C11.9226 3 11.3712 3.48152 11.1577 4.21574L11.1572 4.21761C11.0196 4.68648 10.6386 5.03643 10.2567 5.1935C10.2567 5.19352 10.2566 5.19355 10.2566 5.19357C9.5401 5.48863 8.80765 5.91428 8.24863 6.64523C7.6958 7.36809 7.25849 8.46069 7.25849 10.1883V10.1887C7.2573 12.2622 7.04148 13.5776 6.62425 14.5878C6.26127 15.4666 5.75456 16.0772 5.25182 16.6832C5.17876 16.7712 5.10578 16.8592 5.03334 16.9478L5.0333 16.9479C5.00345 16.9844 4.9951 17.0144 4.99305 17.0369C4.99074 17.0625 4.99555 17.093 5.01161 17.1245C5.03948 17.1791 5.10888 17.25 5.26302 17.25H19.7418C19.8903 17.25 19.9586 17.1814 19.987 17.1254C20.0175 17.0652 20.0137 17.0055 19.9668 16.9478C19.8944 16.8592 19.8214 16.7713 19.7484 16.6833C19.2456 16.0773 18.7388 15.4665 18.3761 14.5876C17.9591 13.5773 17.744 12.2617 17.744 10.1883C17.744 8.4629 17.3064 7.3699 16.753 6.64619C16.1935 5.91434 15.4607 5.48786 14.7458 5.19353C14.3596 5.03471 13.9827 4.67986 13.8459 4.2188L13.8453 4.2169C13.6291 3.48116 13.0775 3 12.5001 3Z" fill="#717272"/>
<path fill-rule="evenodd" clip-rule="evenodd" d="M9.5 17.25C9.91421 17.25 10.25 17.5858 10.25 18V18.75C10.25 19.3467 10.4871 19.919 10.909 20.341C11.331 20.7629 11.9033 21 12.5 21C13.0967 21 13.669 20.7629 14.091 20.341C14.5129 19.919 14.75 19.3467 14.75 18.75V18C14.75 17.5858 15.0858 17.25 15.5 17.25C15.9142 17.25 16.25 17.5858 16.25 18V18.75C16.25 19.7446 15.8549 20.6984 15.1516 21.4016C14.4484 22.1049 13.4946 22.5 12.5 22.5C11.5054 22.5 10.5516 22.1049 9.84835 21.4016C9.14509 20.6984 8.75 19.7446 8.75 18.75V18C8.75 17.5858 9.08579 17.25 9.5 17.25Z" fill="#717272"/>
</svg>
