<svg width="40" height="40" viewBox="0 0 40 40" fill="none" xmlns="http://www.w3.org/2000/svg">
<rect x="0.5" y="0.5" width="39" height="39" rx="9.5" stroke="#D8DADC"/>
<path d="M15.3846 19.9956C15.3846 20.1462 15.4118 20.2851 15.4662 20.4126C15.5267 20.54 15.6173 20.6616 15.7382 20.7774L22.8019 27.3969C23.0074 27.5938 23.2552 27.6922 23.5454 27.6922C23.7449 27.6922 23.9232 27.6459 24.0804 27.5532C24.2436 27.4664 24.3736 27.3448 24.4703 27.1884C24.567 27.0378 24.6154 26.8699 24.6154 26.6845C24.6154 26.4066 24.5035 26.1604 24.2799 25.9462L17.9145 19.9956L24.2799 14.045C24.5035 13.8307 24.6154 13.5875 24.6154 13.3153C24.6154 13.1242 24.567 12.9533 24.4703 12.8028C24.3736 12.6522 24.2436 12.5335 24.0804 12.4466C23.9232 12.3539 23.7449 12.3076 23.5454 12.3076C23.2552 12.3076 23.0074 12.4032 22.8019 12.5943L15.7382 19.2138C15.6173 19.3296 15.5267 19.4512 15.4662 19.5786C15.4118 19.706 15.3846 19.845 15.3846 19.9956Z" fill="black"/>
</svg>
