<svg width="175" height="123" viewBox="0 0 175 123" fill="none" xmlns="http://www.w3.org/2000/svg">
<path d="M142.519 19.3013C142.839 18.1089 144.531 18.1089 144.85 19.3013C147.953 30.8814 157.028 39.9245 168.613 43.0059C169.81 43.3245 169.81 45.0274 168.613 45.3459C157.028 48.4274 147.953 57.4705 144.85 69.0505C144.531 70.2429 142.839 70.2429 142.519 69.0505C139.416 57.4705 130.342 48.4274 118.757 45.3459C117.559 45.0274 117.559 43.3245 118.757 43.0059C130.342 39.9245 139.416 30.8814 142.519 19.3013Z" fill="#80DBD5" fill-opacity="0.25" stroke="url(#paint0_linear_526_3416)"/>
<path d="M123.809 6.25807C124.127 5.07196 125.81 5.07196 126.128 6.25807C129.219 17.7956 138.26 26.8055 149.803 29.8756C150.994 30.1924 150.994 31.8864 149.803 32.2033C138.26 35.2733 129.219 44.2833 126.128 55.8208C125.81 57.0069 124.127 57.0069 123.809 55.8208C120.717 44.2833 111.676 35.2733 100.133 32.2033C98.9422 31.8864 98.9422 30.1924 100.133 29.8756C111.676 26.8055 120.717 17.7956 123.809 6.25807Z" fill="#80DBD5" fill-opacity="0.25" stroke="url(#paint1_linear_526_3416)"/>
<path d="M149.599 5.05377C149.599 5.04877 149.6 5.04488 149.601 5.04196C149.604 5.0411 149.609 5.04043 149.614 5.04043C149.619 5.04043 149.624 5.0411 149.627 5.04196C149.628 5.04488 149.629 5.04877 149.629 5.05377C149.865 7.35264 151.686 9.17287 153.986 9.40289C153.991 9.40335 153.994 9.40393 153.997 9.40451C153.998 9.40773 153.998 9.41179 153.998 9.41645C153.998 9.42111 153.998 9.42517 153.997 9.42839C153.994 9.42897 153.991 9.42955 153.986 9.43001C151.686 9.66004 149.865 11.4803 149.629 13.7791C149.629 13.7841 149.628 13.788 149.627 13.7909C149.624 13.7918 149.619 13.7925 149.614 13.7925C149.609 13.7925 149.604 13.7918 149.601 13.7909C149.6 13.788 149.599 13.7841 149.599 13.7791C149.363 11.4803 147.542 9.66004 145.242 9.43001C145.237 9.42955 145.234 9.42897 145.231 9.42839C145.23 9.42517 145.23 9.42111 145.23 9.41645C145.23 9.41179 145.23 9.40773 145.231 9.40451C145.234 9.40394 145.237 9.40335 145.242 9.40289C147.542 9.17287 149.363 7.35264 149.599 5.05377Z" fill="#80DBD5" fill-opacity="0.25" stroke="url(#paint2_linear_526_3416)"/>
<path d="M91.9771 21.2743C92.823 20.9546 93.4938 20.2821 93.8126 19.4357C94.1315 20.2821 94.8022 20.9546 95.6481 21.2743C94.8022 21.5939 94.1315 22.2664 93.8126 23.1128C93.4938 22.2664 92.823 21.5939 91.9771 21.2743Z" fill="#80DBD5" fill-opacity="0.25" stroke="url(#paint3_linear_526_3416)"/>
<path d="M19.776 116.416C24.256 116.416 27.7333 115.499 30.208 113.664C32.7253 111.829 33.984 109.397 33.984 106.368C33.984 104.192 33.4293 102.272 32.32 100.608C31.2533 98.944 29.9093 97.5787 28.288 96.512C26.6667 95.4027 25.0027 94.3147 23.296 93.248C21.632 92.1813 20.0747 90.8373 18.624 89.216C17.1733 87.5947 16.2133 85.76 15.744 83.712C11.8613 82.56 9.30133 80.1493 8.064 76.48C7.59467 75.072 7.36 73.6 7.36 72.064C7.36 70.528 7.59467 68.928 8.064 67.264C9.04533 63.9787 10.6453 61.504 12.864 59.84L13.568 60.864C11.5627 62.3147 10.112 64.576 9.216 67.648C8.78933 69.184 8.576 70.656 8.576 72.064C8.576 73.472 8.78933 74.816 9.216 76.096C10.24 79.2107 12.352 81.3013 15.552 82.368C15.4667 81.8987 15.424 81.1733 15.424 80.192C15.424 74.6027 17.4507 70.08 21.504 66.624C25.5573 63.168 30.5067 61.44 36.352 61.44C40.192 61.44 43.264 62.4853 45.568 64.576C47.5307 66.4107 48.512 68.672 48.512 71.36C48.512 74.0053 47.616 76.3093 45.824 78.272C44.032 80.192 41.6213 81.152 38.592 81.152C36.928 81.152 35.5627 80.832 34.496 80.192C32.32 81.856 29.7387 83.0507 26.752 83.776C27.6053 84.5867 29.5893 86.08 32.704 88.256C35.8613 90.432 38.208 92.5227 39.744 94.528C41.3227 96.4907 42.112 98.7947 42.112 101.44C42.112 106.304 40.2133 110.251 36.416 113.28C32.6613 116.309 27.8827 117.824 22.08 117.824C16.32 117.824 11.968 116.544 9.024 113.984C6.464 111.808 5.184 109.141 5.184 105.984C5.184 102.869 6.18667 100.203 8.192 97.984C10.24 95.7227 12.7787 94.592 15.808 94.592C18.8373 94.592 21.0773 95.2747 22.528 96.64C23.9787 97.9627 24.704 99.584 24.704 101.504C24.704 103.424 24.1067 105.131 22.912 106.624C21.76 108.117 20.2453 108.864 18.368 108.864C16.4907 108.864 14.9973 108.267 13.888 107.072C12.864 106.048 12.288 104.768 12.16 103.232C12.1173 102.805 12.1173 102.549 12.16 102.464L13.376 102.528C13.3333 104.021 13.8027 105.259 14.784 106.24C15.5947 107.136 16.768 107.584 18.304 107.584C19.8827 107.584 21.1413 106.965 22.08 105.728C23.0187 104.533 23.488 103.147 23.488 101.568C23.488 99.9467 22.9333 98.6453 21.824 97.664C20.5867 96.4267 18.6027 95.808 15.872 95.808C13.1413 95.808 10.88 96.8107 9.088 98.816C7.296 100.779 6.4 103.147 6.4 105.92C6.4 108.736 7.552 111.125 9.856 113.088C11.2213 114.283 12.608 115.136 14.016 115.648C15.4667 116.16 17.3867 116.416 19.776 116.416ZM30.656 72.384C30.656 70.5067 31.1253 68.9493 32.064 67.712C33.0453 66.4747 34.368 65.856 36.032 65.856C38.8907 65.856 40.32 67.4347 40.32 70.592C40.32 73.7067 38.7627 76.6507 35.648 79.424C36.5867 79.8507 37.568 80.064 38.592 80.064C41.2373 80.064 43.3493 79.2107 44.928 77.504C46.5067 75.7547 47.296 73.728 47.296 71.424C47.296 69.0773 46.4427 67.0933 44.736 65.472C42.6453 63.5947 39.8933 62.656 36.48 62.656C33.0667 62.656 30.1653 63.488 27.776 65.152C24.064 67.7973 22.208 71.2107 22.208 75.392C22.208 78.848 23.36 81.3653 25.664 82.944C28.5227 82.304 31.168 81.152 33.6 79.488C31.6373 77.7387 30.656 75.3707 30.656 72.384ZM35.968 67.008C34.688 67.008 33.6853 67.4987 32.96 68.48C32.2773 69.4613 31.936 70.7627 31.936 72.384C31.936 75.1573 32.8107 77.2693 34.56 78.72C35.84 77.824 36.9067 76.608 37.76 75.072C38.6133 73.536 39.04 72.0213 39.04 70.528C39.04 68.1813 38.016 67.008 35.968 67.008ZM81.7895 87.04C80.8935 86.144 80.4455 85.056 80.4455 83.776C80.4455 82.496 80.8935 81.408 81.7895 80.512C82.6855 79.5733 83.6882 79.104 84.7975 79.104C85.9495 79.104 86.9095 79.4027 87.6775 80C88.4882 80.5547 89.0642 81.28 89.4055 82.176C89.4482 82.2187 89.4695 82.2613 89.4695 82.304V82.368C89.9815 83.4773 90.2375 85.0133 90.2375 86.976C90.2375 88.896 90.1095 90.5387 89.8535 91.904C89.5975 93.2693 89.1282 94.72 88.4455 96.256C87.7628 97.792 86.9308 99.1787 85.9495 100.416C84.9682 101.611 83.6455 102.613 81.9815 103.424C80.3602 104.192 78.5468 104.576 76.5415 104.576C73.1282 104.576 70.5682 103.339 68.8615 100.864C66.8135 103.339 64.0188 104.576 60.4775 104.576C57.7468 104.576 55.5068 103.723 53.7575 102.016C52.0508 100.309 51.1975 98.3467 51.1975 96.128C51.1975 93.9093 51.5815 91.1787 52.3495 87.936C53.1602 84.6507 53.6082 82.1333 53.6935 80.384C53.0108 80.4267 52.3495 80.6827 51.7095 81.152C51.0695 81.5787 50.6002 82.0053 50.3015 82.432L49.8535 83.072L48.8935 82.304C49.0215 82.048 49.2135 81.7493 49.4695 81.408C49.7255 81.0667 50.3655 80.5973 51.3895 80C52.4562 79.4027 53.7788 79.104 55.3575 79.104C56.9362 79.104 58.1948 79.616 59.1335 80.64C60.1148 81.664 60.6055 82.9653 60.6055 84.544C60.6055 86.1227 60.1788 88.576 59.3255 91.904C58.4722 95.1893 58.0455 97.5147 58.0455 98.88C58.0455 100.203 58.3442 101.248 58.9415 102.016C59.5815 102.784 60.4775 103.168 61.6295 103.168C64.1042 103.168 66.2162 101.888 67.9655 99.328C67.4962 98.1333 67.2615 96.7467 67.2615 95.168C67.2615 93.5893 67.6455 91.1787 68.4135 87.936C69.2242 84.6507 69.6722 82.1333 69.7575 80.384C69.0748 80.4267 68.4135 80.6827 67.7735 81.152C67.1335 81.5787 66.6642 82.0053 66.3655 82.432L65.9175 83.072L64.9575 82.304C65.0855 82.048 65.2775 81.7493 65.5335 81.408C65.7895 81.0667 66.4295 80.5973 67.4535 80C68.5202 79.4027 69.8428 79.104 71.4215 79.104C73.0002 79.104 74.2588 79.616 75.1975 80.64C76.1788 81.664 76.6695 82.9653 76.6695 84.544C76.6695 86.1227 76.2428 88.576 75.3895 91.904C74.5362 95.1893 74.1095 97.5147 74.1095 98.88C74.1095 100.203 74.4082 101.248 75.0055 102.016C75.6455 102.784 76.5415 103.168 77.6935 103.168C80.5522 103.168 83.1122 101.632 85.3735 98.56C87.6348 95.4453 88.7655 91.9467 88.7655 88.064C88.7655 87.7653 88.7228 87.3173 88.6375 86.72C87.7415 87.8293 86.5895 88.384 85.1815 88.384C83.8162 88.384 82.6855 87.936 81.7895 87.04ZM107.163 79.104C112.581 79.104 115.291 81.2587 115.291 85.568C115.291 88.256 114.011 90.304 111.451 91.712C108.933 93.0773 105.328 93.7813 100.635 93.824C100.549 95.36 100.507 96.576 100.507 97.472C100.507 99.392 100.933 100.821 101.787 101.76C102.683 102.656 103.792 103.104 105.115 103.104C106.437 103.104 107.632 102.848 108.699 102.336C109.808 101.824 110.683 101.227 111.323 100.544C111.963 99.8187 112.517 99.072 112.987 98.304C113.84 96.896 114.267 96 114.267 95.616L115.419 96.128C115.291 96.8107 114.907 97.728 114.267 98.88C113.627 99.9893 112.923 100.907 112.155 101.632C111.387 102.357 110.256 103.04 108.763 103.68C107.269 104.277 105.605 104.576 103.771 104.576C100.315 104.576 97.6905 103.765 95.8985 102.144C94.1492 100.48 93.2745 98.2187 93.2745 95.36C93.2745 90.2827 94.5332 86.3147 97.0505 83.456C99.5678 80.5547 102.939 79.104 107.163 79.104ZM113.691 85.568C113.691 84.16 113.264 83.008 112.411 82.112C111.6 81.1733 110.363 80.704 108.699 80.704C107.077 80.704 105.477 81.6853 103.899 83.648C102.363 85.6107 101.339 88.512 100.827 92.352C109.403 92.3093 113.691 90.048 113.691 85.568ZM132.6 79.104C138.019 79.104 140.728 81.2587 140.728 85.568C140.728 88.256 139.448 90.304 136.888 91.712C134.371 93.0773 130.765 93.7813 126.072 93.824C125.987 95.36 125.944 96.576 125.944 97.472C125.944 99.392 126.371 100.821 127.224 101.76C128.12 102.656 129.229 103.104 130.552 103.104C131.875 103.104 133.069 102.848 134.136 102.336C135.245 101.824 136.12 101.227 136.76 100.544C137.4 99.8187 137.955 99.072 138.424 98.304C139.277 96.896 139.704 96 139.704 95.616L140.856 96.128C140.728 96.8107 140.344 97.728 139.704 98.88C139.064 99.9893 138.36 100.907 137.592 101.632C136.824 102.357 135.693 103.04 134.2 103.68C132.707 104.277 131.043 104.576 129.208 104.576C125.752 104.576 123.128 103.765 121.336 102.144C119.587 100.48 118.712 98.2187 118.712 95.36C118.712 90.2827 119.971 86.3147 122.488 83.456C125.005 80.5547 128.376 79.104 132.6 79.104ZM139.128 85.568C139.128 84.16 138.701 83.008 137.848 82.112C137.037 81.1733 135.8 80.704 134.136 80.704C132.515 80.704 130.915 81.6853 129.336 83.648C127.8 85.6107 126.776 88.512 126.264 92.352C134.84 92.3093 139.128 90.048 139.128 85.568Z" fill="url(#paint4_linear_526_3416)"/>
<defs>
<linearGradient id="paint0_linear_526_3416" x1="112.413" y1="19.6626" x2="174.75" y2="75.5623" gradientUnits="userSpaceOnUse">
<stop stop-color="#80DBD5"/>
<stop offset="0.51" stop-color="#00B7AA"/>
<stop offset="1" stop-color="#008980"/>
</linearGradient>
<linearGradient id="paint1_linear_526_3416" x1="93.8125" y1="6.61754" x2="155.917" y2="62.3095" gradientUnits="userSpaceOnUse">
<stop stop-color="#80DBD5"/>
<stop offset="0.51" stop-color="#00B7AA"/>
<stop offset="1" stop-color="#008980"/>
</linearGradient>
<linearGradient id="paint2_linear_526_3416" x1="140.081" y1="2.00757" x2="158.939" y2="19.0628" gradientUnits="userSpaceOnUse">
<stop stop-color="#80DBD5"/>
<stop offset="0.51" stop-color="#00B7AA"/>
<stop offset="1" stop-color="#008980"/>
</linearGradient>
<linearGradient id="paint3_linear_526_3416" x1="88" y1="16.7923" x2="99.4163" y2="27.1998" gradientUnits="userSpaceOnUse">
<stop stop-color="#80DBD5"/>
<stop offset="0.51" stop-color="#00B7AA"/>
<stop offset="1" stop-color="#008980"/>
</linearGradient>
<linearGradient id="paint4_linear_526_3416" x1="0" y1="86" x2="151" y2="86" gradientUnits="userSpaceOnUse">
<stop stop-color="#03959A"/>
<stop offset="1" stop-color="#01AA8F"/>
</linearGradient>
</defs>
</svg>
